<?xml version="1.0" standalone="no"?><!DOCTYPE svg PUBLIC "-//W3C//DTD SVG 1.1//EN" "http://www.w3.org/Graphics/SVG/1.1/DTD/svg11.dtd"><svg t="1553581593306" class="icon" style="" viewBox="0 0 1024 1024" version="1.1" xmlns="http://www.w3.org/2000/svg" p-id="3124" xmlns:xlink="http://www.w3.org/1999/xlink" width="16" height="16"><defs><style type="text/css"></style></defs><path d="M798.481733 960.275653c-17.639752 0-31.939433-14.31196-31.939433-31.951713L766.5423 97.740068c0-17.639752 14.298658-31.939433 31.939433-31.939433 17.646915 0 31.945573 14.298658 31.945573 31.939433l0 830.583872C830.427306 945.964716 816.128649 960.275653 798.481733 960.275653zM223.468584 960.275653c-17.646915 0-31.951713-14.31196-31.951713-31.951713L191.516872 97.740068c0-17.639752 14.304797-31.939433 31.951713-31.939433 17.633612 0 31.939433 14.298658 31.939433 31.939433l0 830.583872C255.408017 945.964716 241.102197 960.275653 223.468584 960.275653z" p-id="3125" fill="#606266"></path></svg>