<?xml version="1.0" standalone="no"?><!DOCTYPE svg PUBLIC "-//W3C//DTD SVG 1.1//EN" "http://www.w3.org/Graphics/SVG/1.1/DTD/svg11.dtd"><svg t="1512398198260" class="icon" style="" viewBox="0 0 1024 1024" version="1.1" xmlns="http://www.w3.org/2000/svg" p-id="1429" xmlns:xlink="http://www.w3.org/1999/xlink" width="16" height="16"><defs><style type="text/css"></style></defs><path d="M915.498332 438.665785 186.146049 17.469883c-17.806551-10.190083-35.417651-15.479553-52.317553-15.479553-37.256532 0-74.829266 27.53103-74.829266 88.961124l0 842.098113c0 53.200666 30.078039 88.960101 74.877361 88.960101 16.900925 0 34.487465-5.190209 52.294017-15.480576L915.472749 585.334215c31.474852-18.124799 49.525973-44.871977 49.525973-73.383334C964.998723 483.537761 946.947602 456.790584 915.498332 438.665785zM890.416074 541.930683 161.112909 963.02937c-9.943466 5.77861-19.374256 8.816806-27.236318 8.816806-22.314215 0-24.713868-27.13808-24.713868-38.796608L109.162724 90.951455c0-11.659551 2.399653-38.797631 24.665773-38.797631 7.886621 0 17.316387 3.037173 27.260877 8.816806l729.353306 421.097664c15.503089 8.915044 24.39562 19.887956 24.39562 29.882588C914.837276 522.042727 905.944745 532.917402 890.416074 541.930683z" p-id="1430" fill="#ffffff"></path></svg>