<?xml version="1.0" standalone="no"?><!DOCTYPE svg PUBLIC "-//W3C//DTD SVG 1.1//EN" "http://www.w3.org/Graphics/SVG/1.1/DTD/svg11.dtd"><svg t="1510728104393" class="icon" style="" viewBox="0 0 1024 1024" version="1.1" xmlns="http://www.w3.org/2000/svg" p-id="1440" xmlns:xlink="http://www.w3.org/1999/xlink" width="200" height="200"><defs><style type="text/css"></style></defs><path d="M896.4608 455.7824c-5.376-0.7168-10.1888-4.4544-14.4384-11.1104-4.2496-6.656-7.4752-18.8416-9.8304-36.6592-3.8912-28.8256-13.6704-50.1248-29.4912-63.8464-15.7696-13.6704-40.2432-23.5008-73.4208-29.3888a215.9616 215.9616 0 0 1-91.8528-40.5504 665.088 665.088 0 0 1-66.4064-57.088c-16.9984-15.616-30.0544-21.0944-39.3216-16.6912-9.2672 4.4544-13.8752 12.5952-13.8752 24.4736v152.1152c0 41.472-0.2048 86.2208-0.5632 134.2976-0.3584 48.128-0.5632 93.5424-0.5632 136.448V824.32c0.768 17.7664-2.0992 37.5808-8.704 59.3408-6.5536 21.8624-18.8928 42.3936-36.9664 61.696-18.1248 19.2512-42.1376 35.6864-72.192 49.4592-30.0544 13.6704-67.4304 21.6064-112.128 23.9104-45.4656 2.2016-86.4768-5.5808-123.0848-23.3472-36.5568-17.7664-64.9216-40.192-84.9408-67.1232a143.36 143.36 0 0 1-29.4912-88.7808c0.3584-32.2048 14.848-62.3616 43.3664-90.4704 28.5184-28.16 59.3408-47.7184 92.4672-58.8288a338.2272 338.2272 0 0 1 95.8976-18.3296 336.1792 336.1792 0 0 1 82.6368 6.0928c24.2688 5.2224 42.1376 10.0352 53.76 14.4384v-314.3168c0-87.3472 0.3584-185.8048 1.1264-295.3216 0-21.504 5.7856-39.0656 17.3568-52.736 11.4688-13.6192 26.88-21.6064 46.1312-23.808 16.1792-2.2016 29.4912 0.8704 39.8848 9.4208 10.3936 8.4992 20.992 20.3264 31.744 35.4816 10.752 15.2064 24.064 32.4096 39.8848 51.6096 15.7696 19.2512 37.12 38.144 64.1536 56.6272 23.1424 17.0496 43.3664 29.2352 60.672 36.6592 17.3056 7.424 33.536 14.2848 48.5376 20.5312s29.8496 13.8752 44.4928 22.7328 30.8224 23.3472 48.5376 43.3152c17.664 19.2 28.5184 39.2192 32.4096 59.9552 3.8912 20.736 4.0448 39.6288 0.5632 56.6272-3.4816 16.9984-9.0624 30.8736-16.7424 41.6256-7.68 10.752-14.2336 15.7696-19.6096 15.0016z" p-id="1441" fill="#707070"></path></svg>