<?xml version="1.0" standalone="no"?><!DOCTYPE svg PUBLIC "-//W3C//DTD SVG 1.1//EN" "http://www.w3.org/Graphics/SVG/1.1/DTD/svg11.dtd"><svg t="1510816859956" class="icon" style="" viewBox="0 0 1024 1024" version="1.1" xmlns="http://www.w3.org/2000/svg" p-id="2110" xmlns:xlink="http://www.w3.org/1999/xlink" width="16" height="16"><defs><style type="text/css"></style></defs><path d="M239.928 983.51c-34.478 0-64.192-12.978-85.934-37.532-21.685-24.489-33.627-59.499-33.627-98.584v-670.622c0-39.086 11.943-74.101 33.628-98.596 21.743-24.561 51.458-37.541 85.934-37.541 26.018 0 52.656 7.65 79.173 22.737l534.631 336.397c46.957 26.933 73.97 67.871 74.112 112.319 0 45.267-26.774 85.494-75.393 113.283l-0.154 0.087-530.958 333.985c-28.468 16.193-55.099 24.067-81.414 24.067zM239.928 91.197c-41.915 0-68.998 33.59-68.998 85.575v670.623c0 51.972 27.083 85.552 68.998 85.552 17.133 0 35.754-5.655 55.345-16.808l0.156-0.089 530.916-333.977c33.323-19.17 50.937-43.343 50.937-69.904-0.098-35.547-30.786-58.35-49.068-68.778l-1.123-0.668-534.089-336.070c-17.807-10.112-36.157-15.455-53.073-15.455z" fill="#707070" p-id="2111"></path></svg>