<?xml version="1.0" standalone="no"?><!DOCTYPE svg PUBLIC "-//W3C//DTD SVG 1.1//EN" "http://www.w3.org/Graphics/SVG/1.1/DTD/svg11.dtd"><svg t="1510894573845" class="icon" style="" viewBox="0 0 1024 1024" version="1.1" xmlns="http://www.w3.org/2000/svg" p-id="994" xmlns:xlink="http://www.w3.org/1999/xlink" width="23" height="23"><defs><style type="text/css"></style></defs><path d="M950.2 904.9L723.6 678.3c55.2-65.1 88.5-149.4 88.5-241.5 0-206.4-167.3-373.7-373.7-373.7S64.6 230.5 64.6 436.9s167.3 373.7 373.7 373.7c91.3 0 175-32.8 239.9-87.1l226.7 226.7c6.2 6.2 14.4 9.4 22.6 9.4s16.4-3.1 22.6-9.4c12.5-12.5 12.5-32.8 0.1-45.3zM438.3 746.6c-41.8 0-82.4-8.2-120.5-24.3-36.9-15.6-70-37.9-98.5-66.4-28.5-28.5-50.8-61.6-66.4-98.5-16.1-38.1-24.3-78.7-24.3-120.5s8.2-82.4 24.3-120.5c15.6-36.9 37.9-70 66.4-98.5 28.5-28.5 61.6-50.8 98.5-66.4 38.1-16.1 78.7-24.3 120.5-24.3s82.4 8.2 120.5 24.3c36.9 15.6 70 37.9 98.5 66.4 28.5 28.5 50.8 61.6 66.4 98.5 16.1 38.1 24.3 78.7 24.3 120.5s-8.2 82.4-24.3 120.5c-15.6 36.9-37.9 70-66.4 98.5-28.5 28.5-61.6 50.8-98.5 66.4-38.1 16.1-78.6 24.3-120.5 24.3z" fill="#8a8a8a" p-id="995"></path></svg>