<?xml version="1.0" standalone="no"?><!DOCTYPE svg PUBLIC "-//W3C//DTD SVG 1.1//EN" "http://www.w3.org/Graphics/SVG/1.1/DTD/svg11.dtd"><svg t="1512398280771" class="icon" style="" viewBox="0 0 1024 1024" version="1.1" xmlns="http://www.w3.org/2000/svg" p-id="2305" xmlns:xlink="http://www.w3.org/1999/xlink" width="32" height="32"><defs><style type="text/css"></style></defs><path d="M355.869121 834.10928 355.869121 834.10928c-14.735677 0-26.680482-11.944805-26.680482-26.680482L329.188639 216.034496c0-14.735677 11.944805-26.680482 26.680482-26.680482l0 0c14.735677 0 26.680482 11.944805 26.680482 26.680482l0 591.394303C382.549604 822.164475 370.604798 834.10928 355.869121 834.10928z" p-id="2306" fill="#ffffff"></path><path d="M665.393678 834.10928 665.393678 834.10928c-14.735677 0-26.680482-11.944805-26.680482-26.680482L638.713196 216.034496c0-14.735677 11.944805-26.680482 26.680482-26.680482l0 0c14.735677 0 26.680482 11.944805 26.680482 26.680482l0 591.394303C692.07416 822.164475 680.129355 834.10928 665.393678 834.10928z" p-id="2307" fill="#ffffff"></path></svg>