<svg xmlns="http://www.w3.org/2000/svg" viewBox="0 0 198.57142857142858 278" clip-path="url(#clip)" width="365.7142857142857" height="511.99999999999994"><defs><clipPath id="clip" clipPathUnits="objectBoundingBox"><rect x="0" y="0" width="198.57142857142858" height="278"/></clipPath></defs><rect x="0" y="0" width="198.57142857142858" height="278" fill="rgb(213, 212, 210)"/><path d="M139,416L62,245L148,228Z" fill="rgb(29, 26, 30)" fill-opacity="0.93"/><path d="M193,189L32,214L59,40Z" fill="rgb(96, 62, 36)" fill-opacity="0.69"/><path d="M131,27L60,43L168,160Z" fill="rgb(75, 55, 41)" fill-opacity="0.76"/><path d="M69,279L74,215L11,168Z" fill="rgb(210, 205, 200)" fill-opacity="0.79"/><path d="M151,107L107,179L153,241Z" fill="rgb(14, 2, 0)" fill-opacity="0.65"/><path d="M84,150L37,138L62,239Z" fill="rgb(0, 0, 0)" fill-opacity="0.45"/><path d="M117,239L121,200L165,210Z" fill="rgb(50, 0, 0)" fill-opacity="0.33"/><path d="M84,50L78,243L143,97Z" fill="rgb(255, 204, 156)" fill-opacity="0.54"/><path d="M72,233L70,282L153,278Z" fill="rgb(4, 1, 5)" fill-opacity="0.60"/><path d="M144,221L143,193L122,241Z" fill="rgb(0, 0, 0)" fill-opacity="0.69"/><path d="M135,228L148,262L194,149Z" fill="rgb(255, 255, 248)" fill-opacity="0.46"/><path d="M42,186L71,171L54,73Z" fill="rgb(0, 0, 0)" fill-opacity="0.65"/><path d="M177,77L78,8L383,-52Z" fill="rgb(237, 237, 237)" fill-opacity="0.98"/><path d="M57,110L112,104L77,155Z" fill="rgb(245, 206, 177)" fill-opacity="0.58"/><path d="M165,182L148,124L154,222Z" fill="rgb(3, 0, 0)" fill-opacity="0.48"/><path d="M148,67L54,61L100,28Z" fill="rgb(0, 0, 3)" fill-opacity="0.58"/><path d="M142,60L133,140L156,107Z" fill="rgb(12, 5, 4)" fill-opacity="0.62"/><path d="M338,303L160,175L141,-4Z" fill="rgb(254, 255, 255)" fill-opacity="0.62"/><path d="M64,93L88,55L133,81Z" fill="rgb(255, 241, 192)" fill-opacity="0.42"/><path d="M-324,160L31,199L78,-56Z" fill="rgb(241, 241, 242)" fill-opacity="0.85"/><path d="M64,46L82,64L47,104Z" fill="rgb(0, 0, 0)" fill-opacity="0.58"/><path d="M123,237L73,239L120,156Z" fill="rgb(243, 194, 151)" fill-opacity="0.48"/><path d="M148,79L142,141L123,38Z" fill="rgb(24, 16, 14)" fill-opacity="0.79"/><path d="M57,61L-50,105L143,-68Z" fill="rgb(236, 236, 236)" fill-opacity="0.89"/><path d="M48,235L110,241L61,198Z" fill="rgb(217, 190, 172)" fill-opacity="0.55"/><path d="M95,109L77,114L86,91Z" fill="rgb(66, 24, 0)" fill-opacity="0.31"/><path d="M123,153L141,109L96,113Z" fill="rgb(255, 230, 201)" fill-opacity="0.37"/><path d="M164,188L225,201L240,11Z" fill="rgb(247, 247, 247)" fill-opacity="0.84"/><path d="M42,191L-18,193L39,173Z" fill="rgb(239, 240, 240)" fill-opacity="0.77"/><path d="M152,126L107,165L168,185Z" fill="rgb(2, 0, 0)" fill-opacity="0.39"/><path d="M34,169L83,198L58,110Z" fill="rgb(16, 5, 8)" fill-opacity="0.42"/><path d="M143,72L142,54L154,63Z" fill="rgb(255, 255, 255)" fill-opacity="0.45"/><path d="M140,270L60,286L135,220Z" fill="rgb(17, 15, 20)" fill-opacity="0.74"/><path d="M110,59L135,50L144,97Z" fill="rgb(10, 6, 6)" fill-opacity="0.48"/><path d="M85,96L60,113L61,89Z" fill="rgb(236, 183, 139)" fill-opacity="0.61"/><path d="M127,98L108,105L118,108Z" fill="rgb(13, 3, 2)" fill-opacity="0.46"/><path d="M44,199L55,183L53,226Z" fill="rgb(98, 92, 88)" fill-opacity="0.56"/><path d="M149,265L136,229L325,267Z" fill="rgb(224, 222, 212)" fill-opacity="0.77"/><path d="M51,115L89,31L63,49Z" fill="rgb(5, 2, 7)" fill-opacity="0.50"/><path d="M55,284L150,292L146,260Z" fill="rgb(19, 17, 20)" fill-opacity="1.00"/><path d="M138,227L147,216L128,224Z" fill="rgb(0, 0, 0)" fill-opacity="0.39"/><path d="M94,123L112,142L78,144Z" fill="rgb(150, 82, 58)" fill-opacity="0.36"/><path d="M117,165L71,156L82,188Z" fill="rgb(164, 115, 56)" fill-opacity="0.46"/><path d="M163,190L170,173L124,196Z" fill="rgb(10, 1, 0)" fill-opacity="0.44"/><path d="M125,73L94,119L106,64Z" fill="rgb(248, 208, 170)" fill-opacity="0.40"/><path d="M154,153L164,158L158,131Z" fill="rgb(112, 111, 114)" fill-opacity="0.45"/><path d="M78,196L107,239L119,194Z" fill="rgb(233, 207, 189)" fill-opacity="0.43"/><path d="M96,168L120,152L69,145Z" fill="rgb(218, 180, 124)" fill-opacity="0.56"/><path d="M79,235L71,238L77,254Z" fill="rgb(11, 5, 6)" fill-opacity="0.47"/><path d="M137,84L61,91L71,72Z" fill="rgb(237, 187, 144)" fill-opacity="0.41"/><path d="M68,142L61,93L97,136Z" fill="rgb(228, 193, 165)" fill-opacity="0.61"/><path d="M158,193L145,210L169,217Z" fill="rgb(176, 163, 121)" fill-opacity="0.38"/><path d="M159,136L301,101L141,33Z" fill="rgb(243, 243, 243)" fill-opacity="0.93"/><path d="M44,190L69,138L78,205Z" fill="rgb(17, 0, 0)" fill-opacity="0.40"/><path d="M113,170L126,230L137,215Z" fill="rgb(200, 129, 65)" fill-opacity="0.35"/><path d="M173,167L159,139L156,170Z" fill="rgb(152, 154, 158)" fill-opacity="0.46"/><path d="M48,117L40,173L65,206Z" fill="rgb(56, 40, 35)" fill-opacity="0.71"/><path d="M170,-56L114,32L42,32Z" fill="rgb(234, 234, 234)" fill-opacity="0.85"/><path d="M119,95L126,89L100,95Z" fill="rgb(70, 23, 0)" fill-opacity="0.35"/><path d="M119,235L88,241L133,221Z" fill="rgb(229, 208, 189)" fill-opacity="0.52"/><path d="M132,48L148,64L121,24Z" fill="rgb(239, 240, 241)" fill-opacity="0.71"/><path d="M129,144L159,134L146,102Z" fill="rgb(13, 8, 7)" fill-opacity="0.40"/><path d="M77,246L127,233L62,307Z" fill="rgb(22, 20, 25)" fill-opacity="0.87"/><path d="M84,197L41,209L86,220Z" fill="rgb(201, 156, 128)" fill-opacity="0.46"/><path d="M116,35L244,-22L100,29Z" fill="rgb(234, 234, 234)" fill-opacity="0.94"/><path d="M146,199L146,215L154,215Z" fill="rgb(136, 126, 103)" fill-opacity="0.54"/><path d="M73,248L28,202L59,281Z" fill="rgb(249, 253, 252)" fill-opacity="0.34"/><path d="M110,33L75,40L94,32Z" fill="rgb(8, 2, 6)" fill-opacity="0.45"/><path d="M46,143L37,134L36,164Z" fill="rgb(200, 201, 202)" fill-opacity="0.40"/><path d="M146,212L131,200L144,190Z" fill="rgb(0, 0, 0)" fill-opacity="0.48"/><path d="M35,36L86,36L94,30Z" fill="rgb(235, 235, 235)" fill-opacity="0.70"/><path d="M121,73L118,57L140,78Z" fill="rgb(4, 0, 0)" fill-opacity="0.46"/><path d="M30,95L40,192L-144,147Z" fill="rgb(244, 244, 243)" fill-opacity="0.64"/><path d="M93,164L76,171L77,153Z" fill="rgb(144, 97, 58)" fill-opacity="0.55"/><path d="M141,225L146,215L125,230Z" fill="rgb(0, 0, 0)" fill-opacity="0.43"/><path d="M88,92L103,62L134,88Z" fill="rgb(230, 198, 165)" fill-opacity="0.46"/><path d="M52,81L58,201L60,88Z" fill="rgb(7, 2, 3)" fill-opacity="0.49"/><path d="M165,211L168,230L135,228Z" fill="rgb(194, 189, 172)" fill-opacity="0.49"/><path d="M131,224L113,236L124,213Z" fill="rgb(240, 208, 175)" fill-opacity="0.38"/><path d="M7,215L14,194L69,225Z" fill="rgb(223, 223, 218)" fill-opacity="0.43"/><path d="M118,184L139,188L138,121Z" fill="rgb(0, 0, 0)" fill-opacity="0.41"/><path d="M84,106L67,103L87,101Z" fill="rgb(1, 0, 0)" fill-opacity="0.40"/><path d="M160,78L170,172L255,238Z" fill="rgb(247, 247, 247)" fill-opacity="0.94"/><path d="M72,148L49,112L79,193Z" fill="rgb(3, 0, 0)" fill-opacity="0.43"/><path d="M157,193L155,210L145,129Z" fill="rgb(42, 30, 24)" fill-opacity="0.55"/><path d="M94,138L81,141L117,141Z" fill="rgb(72, 10, 0)" fill-opacity="0.40"/><path d="M70,89L93,98L84,89Z" fill="rgb(83, 26, 3)" fill-opacity="0.32"/><path d="M89,40L86,55L92,52Z" fill="rgb(241, 173, 105)" fill-opacity="0.32"/><path d="M43,186L64,206L49,223Z" fill="rgb(142, 133, 127)" fill-opacity="0.52"/><path d="M221,249L150,295L147,271Z" fill="rgb(226, 223, 209)" fill-opacity="0.53"/><path d="M54,58L67,-5L76,38Z" fill="rgb(233, 233, 233)" fill-opacity="0.71"/><path d="M122,193L67,202L123,144Z" fill="rgb(201, 140, 54)" fill-opacity="0.20"/><path d="M147,250L234,206L167,182Z" fill="rgb(223, 221, 212)" fill-opacity="0.65"/><path d="M63,224L82,218L56,202Z" fill="rgb(220, 187, 163)" fill-opacity="0.53"/><path d="M155,217L159,191L186,197Z" fill="rgb(211, 205, 190)" fill-opacity="0.37"/><path d="M193,231L197,220L182,237Z" fill="rgb(169, 160, 107)" fill-opacity="0.43"/><path d="M90,127L107,127L110,132Z" fill="rgb(124, 62, 22)" fill-opacity="0.40"/><path d="M146,126L143,108L134,110Z" fill="rgb(28, 11, 3)" fill-opacity="0.45"/><path d="M82,173L74,205L38,185Z" fill="rgb(42, 23, 12)" fill-opacity="0.45"/><path d="M129,96L131,101L112,100Z" fill="rgb(247, 202, 151)" fill-opacity="0.43"/><path d="M153,103L110,32L142,61Z" fill="rgb(39, 34, 35)" fill-opacity="0.54"/><path d="M128,77L132,95L104,61Z" fill="rgb(245, 184, 108)" fill-opacity="0.35"/><path d="M142,241L154,232L157,209Z" fill="rgb(153, 145, 123)" fill-opacity="0.38"/><path d="M62,125L72,149L62,112Z" fill="rgb(240, 172, 118)" fill-opacity="0.38"/><path d="M142,236L147,217L143,222Z" fill="rgb(248, 247, 246)" fill-opacity="0.33"/><path d="M83,168L85,182L72,161Z" fill="rgb(192, 145, 108)" fill-opacity="0.39"/><path d="M129,107L123,101L105,103Z" fill="rgb(29, 9, 4)" fill-opacity="0.32"/><path d="M159,155L163,157L164,174Z" fill="rgb(222, 224, 227)" fill-opacity="0.51"/><path d="M53,212L28,204L53,207Z" fill="rgb(196, 207, 211)" fill-opacity="0.40"/><path d="M102,66L90,33L121,38Z" fill="rgb(11, 9, 16)" fill-opacity="0.44"/><path d="M50,223L56,230L74,228Z" fill="rgb(142, 148, 149)" fill-opacity="0.49"/><path d="M150,199L149,191L155,198Z" fill="rgb(219, 200, 148)" fill-opacity="0.30"/><path d="M0,166L23,167L48,195Z" fill="rgb(238, 238, 239)" fill-opacity="0.43"/><path d="M114,157L121,156L123,200Z" fill="rgb(106, 63, 30)" fill-opacity="0.41"/><path d="M104,122L89,106L114,112Z" fill="rgb(231, 217, 210)" fill-opacity="0.36"/><path d="M57,63L86,56L53,93Z" fill="rgb(17, 11, 12)" fill-opacity="0.55"/><path d="M119,66L81,54L102,65Z" fill="rgb(123, 64, 34)" fill-opacity="0.44"/><path d="M59,149L45,132L43,151Z" fill="rgb(47, 37, 34)" fill-opacity="0.58"/><path d="M120,39L131,46L142,62Z" fill="rgb(8, 11, 17)" fill-opacity="0.47"/><path d="M100,133L118,136L97,137Z" fill="rgb(249, 218, 179)" fill-opacity="0.45"/><path d="M43,185L39,188L43,188Z" fill="rgb(226, 235, 242)" fill-opacity="0.42"/><path d="M134,58L123,40L119,57Z" fill="rgb(63, 66, 77)" fill-opacity="0.30"/><path d="M124,213L121,196L138,211Z" fill="rgb(144, 88, 56)" fill-opacity="0.37"/><path d="M106,92L129,91L124,95Z" fill="rgb(74, 24, 1)" fill-opacity="0.24"/><path d="M111,115L104,96L117,92Z" fill="rgb(164, 113, 61)" fill-opacity="0.33"/><path d="M113,127L132,99L136,130Z" fill="rgb(255, 223, 202)" fill-opacity="0.25"/><path d="M185,168L167,173L179,201Z" fill="rgb(247, 248, 249)" fill-opacity="0.40"/><path d="M142,227L133,215L145,214Z" fill="rgb(0, 0, 8)" fill-opacity="0.41"/><path d="M122,193L129,207L145,175Z" fill="rgb(65, 39, 29)" fill-opacity="0.44"/><path d="M89,136L78,102L62,122Z" fill="rgb(223, 190, 169)" fill-opacity="0.50"/><path d="M132,199L109,222L136,214Z" fill="rgb(177, 121, 84)" fill-opacity="0.29"/><path d="M143,66L134,30L189,158Z" fill="rgb(242, 242, 242)" fill-opacity="0.80"/><path d="M53,222L60,215L59,223Z" fill="rgb(252, 255, 255)" fill-opacity="0.45"/><path d="M46,210L24,187L27,330Z" fill="rgb(223, 221, 216)" fill-opacity="0.63"/><path d="M62,234L69,225L62,243Z" fill="rgb(142, 144, 134)" fill-opacity="0.43"/><path d="M105,144L133,135L116,159Z" fill="rgb(210, 166, 100)" fill-opacity="0.42"/><path d="M163,153L166,150L168,165Z" fill="rgb(113, 115, 117)" fill-opacity="0.41"/><path d="M49,202L46,208L49,185Z" fill="rgb(53, 46, 42)" fill-opacity="0.43"/><path d="M18,258L16,309L24,251Z" fill="rgb(180, 174, 156)" fill-opacity="0.45"/><path d="M68,263L49,243L71,232Z" fill="rgb(237, 237, 236)" fill-opacity="0.39"/><path d="M94,107L81,117L92,90Z" fill="rgb(176, 128, 84)" fill-opacity="0.38"/><path d="M55,208L100,240L76,238Z" fill="rgb(221, 198, 179)" fill-opacity="0.44"/><path d="M-9,75L59,59L20,151Z" fill="rgb(243, 243, 243)" fill-opacity="0.47"/><path d="M156,179L151,174L164,164Z" fill="rgb(97, 83, 83)" fill-opacity="0.37"/><path d="M133,89L71,87L88,59Z" fill="rgb(227, 195, 165)" fill-opacity="0.40"/><path d="M71,74L82,63L69,106Z" fill="rgb(205, 137, 81)" fill-opacity="0.33"/><path d="M117,110L113,101L123,102Z" fill="rgb(34, 30, 35)" fill-opacity="0.37"/><path d="M146,228L153,227L139,239Z" fill="rgb(219, 214, 199)" fill-opacity="0.41"/><path d="M100,238L109,239L132,219Z" fill="rgb(231, 207, 190)" fill-opacity="0.37"/><path d="M46,123L50,61L50,114Z" fill="rgb(215, 222, 227)" fill-opacity="0.42"/><path d="M58,234L69,225L52,224Z" fill="rgb(142, 143, 143)" fill-opacity="0.42"/><path d="M165,-15L95,25L177,64Z" fill="rgb(236, 236, 236)" fill-opacity="0.81"/><path d="M165,210L165,223L160,206Z" fill="rgb(171, 162, 125)" fill-opacity="0.42"/><path d="M49,108L80,36L58,57Z" fill="rgb(24, 21, 26)" fill-opacity="0.38"/><path d="M40,153L59,157L37,170Z" fill="rgb(68, 63, 62)" fill-opacity="0.35"/><path d="M78,211L84,174L66,213Z" fill="rgb(161, 105, 70)" fill-opacity="0.37"/><path d="M121,154L130,185L132,140Z" fill="rgb(0, 0, 0)" fill-opacity="0.35"/><path d="M102,160L82,181L124,200Z" fill="rgb(193, 153, 105)" fill-opacity="0.60"/><path d="M69,184L70,157L82,181Z" fill="rgb(14, 7, 6)" fill-opacity="0.33"/><path d="M43,180L25,196L6,156Z" fill="rgb(240, 240, 241)" fill-opacity="0.52"/><path d="M145,219L122,239L144,203Z" fill="rgb(4, 3, 9)" fill-opacity="0.49"/><path d="M69,236L31,330L71,264Z" fill="rgb(220, 217, 213)" fill-opacity="0.58"/><path d="M157,187L146,181L171,179Z" fill="rgb(21, 15, 15)" fill-opacity="0.39"/><path d="M-43,206L22,260L13,221Z" fill="rgb(202, 198, 189)" fill-opacity="0.53"/><path d="M86,51L91,62L91,48Z" fill="rgb(165, 120, 78)" fill-opacity="0.44"/><path d="M105,142L103,137L117,143Z" fill="rgb(128, 58, 45)" fill-opacity="0.38"/><path d="M45,190L45,212L16,197Z" fill="rgb(205, 203, 198)" fill-opacity="0.73"/><path d="M79,71L76,67L94,53Z" fill="rgb(138, 79, 43)" fill-opacity="0.43"/><path d="M143,220L135,204L146,181Z" fill="rgb(9, 4, 4)" fill-opacity="0.47"/><path d="M124,112L102,102L115,114Z" fill="rgb(185, 136, 98)" fill-opacity="0.46"/><path d="M91,144L64,134L84,162Z" fill="rgb(213, 170, 112)" fill-opacity="0.36"/><path d="M150,209L158,213L146,214Z" fill="rgb(96, 79, 60)" fill-opacity="0.37"/><path d="M98,153L108,146L88,141Z" fill="rgb(199, 120, 75)" fill-opacity="0.43"/><path d="M69,276L70,261L105,267Z" fill="rgb(2, 0, 0)" fill-opacity="0.21"/><path d="M117,100L78,93L66,100Z" fill="rgb(206, 161, 121)" fill-opacity="0.53"/><path d="M133,237L147,285L143,247Z" fill="rgb(1, 0, 2)" fill-opacity="0.49"/><path d="M40,143L-19,166L42,110Z" fill="rgb(244, 244, 244)" fill-opacity="0.55"/><path d="M131,45L153,101L138,118Z" fill="rgb(30, 22, 18)" fill-opacity="0.62"/><path d="M78,129L92,113L69,119Z" fill="rgb(230, 202, 187)" fill-opacity="0.54"/><path d="M85,160L67,145L76,162Z" fill="rgb(46, 15, 4)" fill-opacity="0.33"/><path d="M87,244L70,259L73,230Z" fill="rgb(24, 9, 2)" fill-opacity="0.23"/><path d="M95,131L84,127L98,127Z" fill="rgb(128, 76, 51)" fill-opacity="0.32"/><path d="M71,205L88,240L104,238Z" fill="rgb(231, 208, 193)" fill-opacity="0.39"/><path d="M165,185L171,177L176,196Z" fill="rgb(248, 249, 253)" fill-opacity="0.35"/><path d="M22,238L-27,179L33,132Z" fill="rgb(251, 248, 243)" fill-opacity="0.17"/><path d="M145,210L149,199L150,226Z" fill="rgb(142, 134, 115)" fill-opacity="0.42"/><path d="M59,166L60,178L68,178Z" fill="rgb(73, 50, 37)" fill-opacity="0.42"/><path d="M168,179L153,196L168,173Z" fill="rgb(32, 22, 17)" fill-opacity="0.44"/><path d="M57,196L47,213L52,184Z" fill="rgb(95, 85, 73)" fill-opacity="0.39"/><path d="M121,142L86,159L112,158Z" fill="rgb(226, 204, 159)" fill-opacity="0.29"/><path d="M157,222L162,218L157,207Z" fill="rgb(247, 249, 251)" fill-opacity="0.40"/><path d="M137,171L137,190L158,170Z" fill="rgb(49, 41, 43)" fill-opacity="0.47"/><path d="M93,114L104,107L102,130Z" fill="rgb(240, 225, 222)" fill-opacity="0.32"/><path d="M88,59L111,64L81,67Z" fill="rgb(220, 143, 95)" fill-opacity="0.29"/><path d="M166,224L174,268L195,193Z" fill="rgb(232, 231, 228)" fill-opacity="0.44"/><path d="M121,198L85,200L71,231Z" fill="rgb(222, 196, 176)" fill-opacity="0.59"/><path d="M163,209L162,192L156,204Z" fill="rgb(185, 176, 146)" fill-opacity="0.41"/><path d="M61,194L44,194L75,207Z" fill="rgb(107, 68, 48)" fill-opacity="0.37"/><path d="M96,33L118,35L93,57Z" fill="rgb(22, 20, 25)" fill-opacity="0.46"/><path d="M150,220L150,230L157,222Z" fill="rgb(144, 140, 129)" fill-opacity="0.40"/><path d="M150,161L117,162L148,117Z" fill="rgb(8, 4, 7)" fill-opacity="0.38"/><path d="M117,58L141,103L127,64Z" fill="rgb(14, 5, 0)" fill-opacity="0.42"/><path d="M91,246L70,239L89,241Z" fill="rgb(6, 7, 15)" fill-opacity="0.43"/><path d="M6,277L-5,347L-3,274Z" fill="rgb(252, 252, 252)" fill-opacity="0.61"/><path d="M84,107L89,102L79,105Z" fill="rgb(0, 0, 7)" fill-opacity="0.40"/><path d="M134,111L138,125L122,146Z" fill="rgb(232, 169, 116)" fill-opacity="0.33"/><path d="M84,239L71,236L75,228Z" fill="rgb(212, 174, 140)" fill-opacity="0.53"/><path d="M74,71L70,75L69,61Z" fill="rgb(27, 13, 7)" fill-opacity="0.45"/><path d="M131,70L109,58L114,67Z" fill="rgb(14, 9, 9)" fill-opacity="0.44"/><path d="M147,219L146,215L141,230Z" fill="rgb(211, 210, 207)" fill-opacity="0.51"/><path d="M129,225L103,240L125,230Z" fill="rgb(229, 206, 183)" fill-opacity="0.47"/><path d="M20,265L25,282L11,285Z" fill="rgb(186, 182, 168)" fill-opacity="0.44"/><path d="M63,59L48,108L52,81Z" fill="rgb(75, 65, 63)" fill-opacity="0.30"/><path d="M27,211L22,292L72,244Z" fill="rgb(227, 227, 223)" fill-opacity="0.42"/><path d="M55,206L54,206L54,188Z" fill="rgb(169, 164, 155)" fill-opacity="0.37"/><path d="M153,126L160,132L156,143Z" fill="rgb(142, 143, 142)" fill-opacity="0.41"/><path d="M179,251L204,253L181,267Z" fill="rgb(206, 204, 191)" fill-opacity="0.49"/><path d="M70,139L121,133L115,130Z" fill="rgb(222, 187, 150)" fill-opacity="0.47"/><path d="M69,80L67,74L61,89Z" fill="rgb(108, 66, 29)" fill-opacity="0.41"/><path d="M80,116L70,104L89,109Z" fill="rgb(197, 141, 105)" fill-opacity="0.48"/><path d="M39,138L47,118L42,148Z" fill="rgb(195, 196, 196)" fill-opacity="0.67"/><path d="M51,151L49,110L63,127Z" fill="rgb(17, 11, 12)" fill-opacity="0.42"/><path d="M164,163L166,175L159,159Z" fill="rgb(216, 221, 225)" fill-opacity="0.38"/><path d="M73,215L81,190L89,209Z" fill="rgb(200, 163, 136)" fill-opacity="0.39"/><path d="M87,33L100,24L87,37Z" fill="rgb(194, 194, 194)" fill-opacity="0.50"/><path d="M62,140L60,111L52,104Z" fill="rgb(11, 5, 5)" fill-opacity="0.53"/><path d="M80,54L56,95L54,72Z" fill="rgb(15, 12, 10)" fill-opacity="0.41"/><path d="M137,99L111,96L123,102Z" fill="rgb(214, 168, 125)" fill-opacity="0.49"/><path d="M141,258L70,270L74,237Z" fill="rgb(22, 20, 27)" fill-opacity="0.60"/><path d="M181,239L206,208L185,239Z" fill="rgb(168, 161, 111)" fill-opacity="0.33"/><path d="M115,191L124,206L85,194Z" fill="rgb(209, 175, 142)" fill-opacity="0.41"/><path d="M71,199L37,181L42,186Z" fill="rgb(60, 47, 41)" fill-opacity="0.53"/><path d="M46,196L45,206L48,216Z" fill="rgb(146, 142, 138)" fill-opacity="0.53"/><path d="M72,42L85,65L83,35Z" fill="rgb(30, 27, 33)" fill-opacity="0.38"/><path d="M75,89L67,96L93,92Z" fill="rgb(114, 69, 52)" fill-opacity="0.31"/><path d="M123,39L141,55L148,31Z" fill="rgb(240, 240, 240)" fill-opacity="0.47"/><path d="M118,130L125,123L107,108Z" fill="rgb(229, 203, 193)" fill-opacity="0.41"/><path d="M165,165L157,133L166,151Z" fill="rgb(132, 135, 138)" fill-opacity="0.39"/><path d="M135,226L151,252L139,240Z" fill="rgb(229, 226, 216)" fill-opacity="0.50"/><path d="M153,153L155,136L160,166Z" fill="rgb(83, 65, 57)" fill-opacity="0.50"/><path d="M103,240L134,229L100,270Z" fill="rgb(24, 21, 27)" fill-opacity="0.94"/><path d="M100,133L111,129L90,128Z" fill="rgb(153, 96, 56)" fill-opacity="0.47"/><path d="M73,227L69,220L68,239Z" fill="rgb(231, 251, 254)" fill-opacity="0.35"/><path d="M32,77L33,132L52,95Z" fill="rgb(249, 249, 247)" fill-opacity="0.30"/><path d="M72,242L70,251L131,239Z" fill="rgb(21, 19, 23)" fill-opacity="0.48"/><path d="M140,234L144,230L140,226Z" fill="rgb(165, 157, 141)" fill-opacity="0.41"/><path d="M121,103L116,104L120,108Z" fill="rgb(0, 0, 10)" fill-opacity="0.41"/><path d="M85,101L74,101L94,109Z" fill="rgb(46, 29, 19)" fill-opacity="0.36"/><path d="M32,199L40,197L31,225Z" fill="rgb(197, 195, 187)" fill-opacity="0.68"/><path d="M166,186L183,190L175,164Z" fill="rgb(252, 253, 254)" fill-opacity="0.39"/><path d="M88,38L66,46L74,69Z" fill="rgb(26, 24, 27)" fill-opacity="0.50"/><path d="M161,212L166,233L166,212Z" fill="rgb(186, 174, 139)" fill-opacity="0.34"/><path d="M161,159L158,153L161,126Z" fill="rgb(193, 193, 194)" fill-opacity="0.38"/><path d="M144,67L110,46L149,92Z" fill="rgb(32, 27, 27)" fill-opacity="0.43"/><path d="M93,61L118,78L78,76Z" fill="rgb(231, 203, 177)" fill-opacity="0.40"/><path d="M88,111L108,109L106,74Z" fill="rgb(216, 186, 152)" fill-opacity="0.33"/><path d="M141,104L153,120L152,94Z" fill="rgb(40, 29, 25)" fill-opacity="0.52"/><path d="M119,186L136,203L125,207Z" fill="rgb(97, 52, 32)" fill-opacity="0.33"/><path d="M53,220L57,217L57,224Z" fill="rgb(254, 255, 255)" fill-opacity="0.67"/><path d="M108,229L116,235L101,240Z" fill="rgb(243, 218, 206)" fill-opacity="0.33"/><path d="M154,121L151,69L163,145Z" fill="rgb(239, 240, 241)" fill-opacity="0.44"/><path d="M-2,243L15,278L-33,264Z" fill="rgb(202, 199, 191)" fill-opacity="0.48"/><path d="M145,94L122,172L149,108Z" fill="rgb(16, 9, 7)" fill-opacity="0.44"/><path d="M74,178L65,203L77,191Z" fill="rgb(9, 6, 4)" fill-opacity="0.38"/><path d="M151,274L144,284L155,282Z" fill="rgb(239, 232, 217)" fill-opacity="0.45"/><path d="M71,79L72,110L62,92Z" fill="rgb(209, 164, 122)" fill-opacity="0.46"/><path d="M47,126L40,124L48,111Z" fill="rgb(202, 205, 207)" fill-opacity="0.43"/><path d="M55,171L73,147L73,163Z" fill="rgb(4, 5, 7)" fill-opacity="0.42"/><path d="M168,175L166,168L169,166Z" fill="rgb(53, 63, 75)" fill-opacity="0.35"/><path d="M153,185L160,196L162,186Z" fill="rgb(31, 13, 0)" fill-opacity="0.37"/><path d="M70,193L39,185L65,168Z" fill="rgb(44, 28, 20)" fill-opacity="0.51"/><path d="M80,239L80,218L101,234Z" fill="rgb(233, 212, 198)" fill-opacity="0.39"/><path d="M156,276L162,227L141,243Z" fill="rgb(228, 227, 221)" fill-opacity="0.46"/><path d="M102,229L91,240L98,240Z" fill="rgb(209, 183, 162)" fill-opacity="0.55"/><path d="M149,204L154,203L152,199Z" fill="rgb(68, 53, 32)" fill-opacity="0.42"/><path d="M136,120L138,103L130,82Z" fill="rgb(188, 110, 44)" fill-opacity="0.29"/><path d="M108,33L124,39L140,58Z" fill="rgb(35, 34, 39)" fill-opacity="0.45"/><path d="M110,59L95,50L92,60Z" fill="rgb(31, 22, 19)" fill-opacity="0.43"/><path d="M74,150L69,145L67,138Z" fill="rgb(187, 117, 68)" fill-opacity="0.46"/><path d="M61,204L65,193L41,180Z" fill="rgb(61, 41, 31)" fill-opacity="0.41"/><path d="M78,240L92,240L94,243Z" fill="rgb(3, 3, 13)" fill-opacity="0.39"/><path d="M79,190L83,190L78,171Z" fill="rgb(131, 87, 45)" fill-opacity="0.38"/><path d="M48,199L63,207L48,194Z" fill="rgb(183, 164, 142)" fill-opacity="0.30"/><path d="M59,178L45,143L40,177Z" fill="rgb(57, 45, 41)" fill-opacity="0.47"/><path d="M69,121L62,120L67,139Z" fill="rgb(207, 162, 128)" fill-opacity="0.49"/><path d="M116,233L87,221L105,195Z" fill="rgb(233, 210, 196)" fill-opacity="0.37"/><path d="M122,74L85,73L110,66Z" fill="rgb(230, 201, 172)" fill-opacity="0.40"/><path d="M59,243L44,207L42,232Z" fill="rgb(231, 233, 235)" fill-opacity="0.38"/><path d="M83,125L97,113L73,154Z" fill="rgb(206, 171, 134)" fill-opacity="0.40"/><path d="M77,154L60,152L59,134Z" fill="rgb(12, 7, 7)" fill-opacity="0.46"/><path d="M166,178L155,169L154,161Z" fill="rgb(69, 56, 52)" fill-opacity="0.47"/><path d="M109,33L89,34L123,58Z" fill="rgb(28, 25, 30)" fill-opacity="0.57"/><path d="M155,134L154,126L161,142Z" fill="rgb(96, 95, 96)" fill-opacity="0.46"/><path d="M82,-3L-6,52L-4,-72Z" fill="rgb(228, 228, 227)" fill-opacity="0.51"/><path d="M138,229L146,220L144,227Z" fill="rgb(233, 231, 231)" fill-opacity="0.42"/><path d="M96,179L88,202L78,168Z" fill="rgb(196, 158, 123)" fill-opacity="0.41"/><path d="M45,192L47,194L34,162Z" fill="rgb(157, 161, 164)" fill-opacity="0.35"/><path d="M187,174L208,118L215,216Z" fill="rgb(255, 255, 255)" fill-opacity="0.79"/><path d="M85,42L109,39L82,36Z" fill="rgb(13, 7, 0)" fill-opacity="0.31"/><path d="M127,43L105,31L112,64Z" fill="rgb(38, 38, 46)" fill-opacity="0.36"/><path d="M62,234L65,237L70,223Z" fill="rgb(145, 145, 137)" fill-opacity="0.36"/><path d="M146,141L157,153L151,115Z" fill="rgb(56, 35, 25)" fill-opacity="0.37"/><path d="M83,101L84,109L79,101Z" fill="rgb(0, 0, 10)" fill-opacity="0.36"/><path d="M119,222L132,222L111,189Z" fill="rgb(209, 172, 140)" fill-opacity="0.35"/><path d="M144,222L149,230L159,234Z" fill="rgb(219, 219, 214)" fill-opacity="0.35"/><path d="M46,205L46,202L57,200Z" fill="rgb(75, 67, 56)" fill-opacity="0.37"/><path d="M71,148L78,144L79,155Z" fill="rgb(182, 128, 75)" fill-opacity="0.40"/><path d="M136,213L143,216L120,245Z" fill="rgb(16, 14, 18)" fill-opacity="0.67"/><path d="M118,161L109,159L122,196Z" fill="rgb(148, 103, 59)" fill-opacity="0.45"/><path d="M78,211L67,199L56,203Z" fill="rgb(178, 114, 76)" fill-opacity="0.35"/><path d="M69,59L73,54L60,51Z" fill="rgb(32, 28, 27)" fill-opacity="0.53"/><path d="M54,192L58,203L65,180Z" fill="rgb(41, 27, 19)" fill-opacity="0.40"/><path d="M176,196L183,188L200,195Z" fill="rgb(211, 208, 199)" fill-opacity="0.40"/><path d="M28,186L10,200L44,186Z" fill="rgb(240, 241, 240)" fill-opacity="0.47"/><path d="M153,206L155,207L150,209Z" fill="rgb(233, 244, 242)" fill-opacity="0.40"/><path d="M35,172L39,169L44,184Z" fill="rgb(145, 152, 158)" fill-opacity="0.39"/><path d="M81,99L89,103L86,98Z" fill="rgb(232, 173, 113)" fill-opacity="0.36"/><path d="M126,61L110,63L125,73Z" fill="rgb(19, 14, 10)" fill-opacity="0.46"/><path d="M142,239L150,238L143,224Z" fill="rgb(180, 173, 156)" fill-opacity="0.42"/><path d="M162,86L167,145L152,110Z" fill="rgb(251, 251, 251)" fill-opacity="0.43"/><path d="M191,266L186,256L211,257Z" fill="rgb(245, 247, 255)" fill-opacity="0.28"/><path d="M70,144L62,126L111,165Z" fill="rgb(214, 177, 139)" fill-opacity="0.34"/><path d="M137,120L137,109L127,147Z" fill="rgb(203, 136, 80)" fill-opacity="0.39"/><path d="M46,126L56,108L74,163Z" fill="rgb(16, 11, 12)" fill-opacity="0.40"/><path d="M41,162L41,145L44,156Z" fill="rgb(112, 109, 108)" fill-opacity="0.38"/><path d="M57,115L47,108L67,51Z" fill="rgb(7, 5, 3)" fill-opacity="0.17"/><path d="M79,35L58,62L89,59Z" fill="rgb(34, 28, 30)" fill-opacity="0.24"/><path d="M91,91L88,97L77,95Z" fill="rgb(140, 94, 58)" fill-opacity="0.33"/><path d="M60,119L66,121L69,138Z" fill="rgb(198, 157, 126)" fill-opacity="0.40"/><path d="M146,220L147,209L146,193Z" fill="rgb(187, 178, 159)" fill-opacity="0.44"/><path d="M116,67L126,75L91,61Z" fill="rgb(198, 139, 88)" fill-opacity="0.44"/><path d="M135,188L153,187L123,203Z" fill="rgb(44, 28, 18)" fill-opacity="0.54"/><path d="M137,113L125,142L126,106Z" fill="rgb(226, 194, 170)" fill-opacity="0.39"/><path d="M148,198L170,189L167,194Z" fill="rgb(212, 200, 178)" fill-opacity="0.39"/><path d="M65,49L65,22L53,58Z" fill="rgb(240, 240, 241)" fill-opacity="0.40"/><path d="M47,207L54,212L54,208Z" fill="rgb(218, 224, 232)" fill-opacity="0.34"/><path d="M125,191L122,170L133,173Z" fill="rgb(7, 1, 2)" fill-opacity="0.35"/><path d="M37,185L51,187L60,173Z" fill="rgb(54, 39, 31)" fill-opacity="0.53"/><path d="M184,257L184,254L229,246Z" fill="rgb(193, 190, 163)" fill-opacity="0.36"/><path d="M151,216L146,221L155,220Z" fill="rgb(238, 240, 204)" fill-opacity="0.27"/><path d="M193,227L176,259L210,237Z" fill="rgb(228, 227, 219)" fill-opacity="0.39"/><path d="M70,276L68,307L46,214Z" fill="rgb(231, 231, 230)" fill-opacity="0.37"/><path d="M74,197L79,174L77,202Z" fill="rgb(85, 53, 33)" fill-opacity="0.46"/><path d="M142,64L108,61L137,53Z" fill="rgb(32, 28, 29)" fill-opacity="0.66"/><path d="M121,112L124,98L121,101Z" fill="rgb(202, 177, 149)" fill-opacity="0.37"/><path d="M119,54L131,66L119,36Z" fill="rgb(59, 58, 63)" fill-opacity="0.37"/><path d="M172,248L163,189L170,189Z" fill="rgb(227, 227, 225)" fill-opacity="0.52"/><path d="M132,100L134,104L114,116Z" fill="rgb(201, 145, 89)" fill-opacity="0.35"/><path d="M148,206L174,217L171,205Z" fill="rgb(220, 219, 212)" fill-opacity="0.30"/><path d="M106,272L140,242L144,265Z" fill="rgb(11, 9, 13)" fill-opacity="0.38"/><path d="M65,113L92,137L67,102Z" fill="rgb(234, 205, 185)" fill-opacity="0.28"/><path d="M109,241L135,234L133,225Z" fill="rgb(21, 20, 24)" fill-opacity="0.67"/><path d="M121,186L96,192L108,160Z" fill="rgb(181, 140, 87)" fill-opacity="0.36"/><path d="M83,64L74,84L107,99Z" fill="rgb(217, 182, 147)" fill-opacity="0.38"/><path d="M140,259L138,259L134,264Z" fill="rgb(64, 65, 74)" fill-opacity="0.37"/><path d="M193,105L136,53L212,17Z" fill="rgb(243, 243, 243)" fill-opacity="0.40"/><path d="M106,32L96,32L124,54Z" fill="rgb(31, 26, 30)" fill-opacity="0.45"/><path d="M129,120L117,125L134,103Z" fill="rgb(233, 209, 194)" fill-opacity="0.32"/><path d="M115,217L120,233L124,220Z" fill="rgb(221, 196, 172)" fill-opacity="0.43"/><path d="M23,233L23,224L28,236Z" fill="rgb(204, 197, 169)" fill-opacity="0.40"/><path d="M88,151L114,155L85,160Z" fill="rgb(219, 183, 151)" fill-opacity="0.40"/><path d="M95,117L103,124L101,105Z" fill="rgb(236, 218, 211)" fill-opacity="0.42"/><path d="M63,91L59,108L76,109Z" fill="rgb(211, 171, 136)" fill-opacity="0.30"/><path d="M173,215L168,295L179,266Z" fill="rgb(232, 232, 230)" fill-opacity="0.42"/><path d="M132,223L148,302L148,264Z" fill="rgb(12, 4, 3)" fill-opacity="0.22"/><path d="M96,160L90,165L69,140Z" fill="rgb(207, 169, 125)" fill-opacity="0.36"/><path d="M173,125L176,119L152,134Z" fill="rgb(236, 235, 234)" fill-opacity="0.38"/><path d="M162,155L151,133L161,155Z" fill="rgb(76, 65, 60)" fill-opacity="0.40"/><path d="M33,189L52,195L52,192Z" fill="rgb(166, 159, 157)" fill-opacity="0.31"/><path d="M88,44L88,62L91,56Z" fill="rgb(164, 127, 87)" fill-opacity="0.43"/><path d="M87,240L99,232L92,240Z" fill="rgb(239, 211, 190)" fill-opacity="0.43"/><path d="M165,167L164,175L160,159Z" fill="rgb(199, 200, 201)" fill-opacity="0.40"/><path d="M126,143L136,131L120,159Z" fill="rgb(120, 67, 26)" fill-opacity="0.37"/><path d="M156,205L150,215L156,218Z" fill="rgb(97, 84, 54)" fill-opacity="0.32"/><path d="M119,74L114,67L98,67Z" fill="rgb(224, 196, 165)" fill-opacity="0.40"/><path d="M53,71L3,37L60,54Z" fill="rgb(237, 237, 237)" fill-opacity="0.68"/><path d="M64,223L58,227L64,225Z" fill="rgb(118, 115, 113)" fill-opacity="0.43"/><path d="M90,238L102,240L83,240Z" fill="rgb(226, 197, 169)" fill-opacity="0.43"/><path d="M156,205L155,200L146,205Z" fill="rgb(88, 76, 58)" fill-opacity="0.52"/><path d="M164,179L148,194L164,173Z" fill="rgb(26, 18, 15)" fill-opacity="0.45"/><path d="M181,240L182,244L187,233Z" fill="rgb(173, 167, 123)" fill-opacity="0.38"/><path d="M94,169L80,161L80,171Z" fill="rgb(133, 92, 51)" fill-opacity="0.27"/><path d="M91,124L106,123L99,129Z" fill="rgb(218, 167, 129)" fill-opacity="0.59"/><path d="M101,234L100,240L112,271Z" fill="rgb(33, 28, 30)" fill-opacity="0.26"/><path d="M184,193L166,186L172,205Z" fill="rgb(213, 211, 204)" fill-opacity="0.38"/><path d="M18,210L48,220L3,233Z" fill="rgb(215, 212, 203)" fill-opacity="0.38"/><path d="M155,128L154,131L154,127Z" fill="rgb(202, 194, 193)" fill-opacity="0.39"/><path d="M104,168L95,163L76,161Z" fill="rgb(163, 120, 65)" fill-opacity="0.40"/><path d="M165,188L165,191L164,188Z" fill="rgb(47, 19, 0)" fill-opacity="0.44"/><path d="M169,159L178,88L162,142Z" fill="rgb(248, 248, 248)" fill-opacity="0.53"/><path d="M50,217L57,211L50,213Z" fill="rgb(107, 107, 104)" fill-opacity="0.43"/><path d="M123,151L121,182L116,160Z" fill="rgb(89, 56, 29)" fill-opacity="0.41"/><path d="M95,233L99,228L104,230Z" fill="rgb(199, 170, 160)" fill-opacity="0.42"/><path d="M127,227L133,219L132,209Z" fill="rgb(181, 140, 112)" fill-opacity="0.41"/><path d="M157,198L150,192L163,198Z" fill="rgb(134, 109, 72)" fill-opacity="0.42"/><path d="M118,158L123,151L147,136Z" fill="rgb(16, 11, 7)" fill-opacity="0.40"/><path d="M150,79L150,91L164,67Z" fill="rgb(241, 240, 240)" fill-opacity="0.40"/><path d="M47,198L46,197L54,179Z" fill="rgb(48, 37, 31)" fill-opacity="0.40"/><path d="M106,131L110,139L129,124Z" fill="rgb(223, 191, 163)" fill-opacity="0.46"/><path d="M78,100L76,96L88,100Z" fill="rgb(223, 184, 153)" fill-opacity="0.42"/><path d="M118,42L126,41L126,60Z" fill="rgb(58, 54, 58)" fill-opacity="0.60"/><path d="M69,229L55,223L61,239Z" fill="rgb(162, 157, 151)" fill-opacity="0.44"/><path d="M88,162L83,168L74,152Z" fill="rgb(126, 86, 50)" fill-opacity="0.40"/><path d="M94,25L72,-11L39,65Z" fill="rgb(236, 236, 236)" fill-opacity="0.54"/><path d="M122,116L126,110L113,107Z" fill="rgb(208, 166, 132)" fill-opacity="0.40"/><path d="M166,160L169,171L168,161Z" fill="rgb(110, 114, 116)" fill-opacity="0.44"/><path d="M40,327L51,262L40,210Z" fill="rgb(206, 197, 188)" fill-opacity="0.21"/><path d="M84,108L85,104L95,114Z" fill="rgb(192, 163, 138)" fill-opacity="0.36"/><path d="M160,199L159,232L157,205Z" fill="rgb(229, 228, 220)" fill-opacity="0.45"/><path d="M107,64L115,60L115,43Z" fill="rgb(48, 46, 55)" fill-opacity="0.34"/><path d="M72,221L58,224L68,209Z" fill="rgb(207, 188, 174)" fill-opacity="0.43"/><path d="M145,210L145,184L130,231Z" fill="rgb(8, 6, 9)" fill-opacity="0.46"/><path d="M116,55L115,48L133,74Z" fill="rgb(4, 5, 8)" fill-opacity="0.41"/><path d="M61,97L72,69L59,93Z" fill="rgb(146, 86, 30)" fill-opacity="0.25"/><path d="M115,35L131,40L62,10Z" fill="rgb(226, 226, 227)" fill-opacity="0.52"/><path d="M153,119L151,93L146,76Z" fill="rgb(52, 40, 34)" fill-opacity="0.67"/><path d="M147,264L149,283L175,281Z" fill="rgb(218, 214, 199)" fill-opacity="0.61"/><path d="M169,165L148,110L164,148Z" fill="rgb(102, 101, 101)" fill-opacity="0.40"/><path d="M37,187L40,182L32,156Z" fill="rgb(232, 232, 233)" fill-opacity="0.57"/><path d="M126,106L116,100L129,105Z" fill="rgb(58, 12, 0)" fill-opacity="0.24"/><path d="M100,59L100,65L86,54Z" fill="rgb(115, 74, 52)" fill-opacity="0.37"/><path d="M184,205L181,193L181,226Z" fill="rgb(203, 190, 163)" fill-opacity="0.31"/><path d="M168,176L179,191L176,137Z" fill="rgb(247, 248, 247)" fill-opacity="0.55"/><path d="M70,29L93,32L67,41Z" fill="rgb(228, 228, 228)" fill-opacity="0.51"/><path d="M148,236L149,236L145,225Z" fill="rgb(131, 127, 120)" fill-opacity="0.38"/><path d="M87,71L91,39L88,41Z" fill="rgb(169, 128, 88)" fill-opacity="0.27"/><path d="M70,136L62,129L73,145Z" fill="rgb(189, 139, 108)" fill-opacity="0.40"/><path d="M64,50L62,50L68,42Z" fill="rgb(183, 183, 182)" fill-opacity="0.42"/><path d="M114,95L114,91L122,90Z" fill="rgb(69, 37, 31)" fill-opacity="0.33"/><path d="M71,244L73,236L81,240Z" fill="rgb(18, 12, 14)" fill-opacity="0.41"/><path d="M109,138L116,144L95,138Z" fill="rgb(145, 83, 56)" fill-opacity="0.41"/><path d="M67,97L76,74L90,56Z" fill="rgb(215, 169, 118)" fill-opacity="0.36"/><path d="M183,254L179,259L197,252Z" fill="rgb(193, 190, 165)" fill-opacity="0.43"/><path d="M146,255L142,256L131,239Z" fill="rgb(12, 9, 14)" fill-opacity="0.44"/><path d="M104,116L97,98L112,116Z" fill="rgb(227, 202, 177)" fill-opacity="0.40"/><path d="M160,143L160,146L154,129Z" fill="rgb(185, 186, 185)" fill-opacity="0.38"/><path d="M121,151L115,157L113,127Z" fill="rgb(204, 173, 117)" fill-opacity="0.40"/><path d="M156,156L157,153L168,186Z" fill="rgb(93, 93, 95)" fill-opacity="0.39"/><path d="M135,199L122,196L136,213Z" fill="rgb(106, 62, 40)" fill-opacity="0.40"/><path d="M174,200L177,194L183,211Z" fill="rgb(234, 233, 228)" fill-opacity="0.43"/><path d="M129,143L84,164L132,131Z" fill="rgb(215, 177, 129)" fill-opacity="0.28"/><path d="M167,175L171,176L157,176Z" fill="rgb(177, 174, 174)" fill-opacity="0.34"/><path d="M156,190L156,199L153,195Z" fill="rgb(62, 37, 20)" fill-opacity="0.40"/><path d="M155,220L156,221L154,201Z" fill="rgb(98, 91, 76)" fill-opacity="0.46"/><path d="M105,30L113,30L89,33Z" fill="rgb(191, 189, 190)" fill-opacity="0.42"/><path d="M81,94L92,94L96,110Z" fill="rgb(188, 137, 89)" fill-opacity="0.35"/><path d="M125,229L121,233L84,231Z" fill="rgb(229, 206, 190)" fill-opacity="0.56"/><path d="M123,93L110,96L109,103Z" fill="rgb(182, 130, 82)" fill-opacity="0.48"/><path d="M48,201L51,218L46,200Z" fill="rgb(62, 55, 56)" fill-opacity="0.34"/><path d="M143,193L141,226L146,215Z" fill="rgb(14, 11, 17)" fill-opacity="0.47"/><path d="M58,66L56,66L60,105Z" fill="rgb(22, 14, 11)" fill-opacity="0.37"/><path d="M90,222L85,219L103,235Z" fill="rgb(186, 150, 137)" fill-opacity="0.39"/><path d="M161,212L148,223L172,198Z" fill="rgb(208, 206, 195)" fill-opacity="0.40"/><path d="M89,50L60,55L58,65Z" fill="rgb(25, 21, 21)" fill-opacity="0.57"/><path d="M122,102L111,106L116,100Z" fill="rgb(78, 54, 43)" fill-opacity="0.40"/><path d="M113,115L101,89L119,110Z" fill="rgb(182, 139, 106)" fill-opacity="0.38"/><path d="M113,179L114,161L105,163Z" fill="rgb(166, 121, 72)" fill-opacity="0.48"/><path d="M147,224L151,226L147,217Z" fill="rgb(116, 109, 104)" fill-opacity="0.41"/><path d="M97,123L81,139L87,121Z" fill="rgb(215, 178, 145)" fill-opacity="0.48"/><path d="M53,226L65,239L65,228Z" fill="rgb(161, 156, 149)" fill-opacity="0.42"/><path d="M103,141L95,144L111,144Z" fill="rgb(229, 135, 149)" fill-opacity="0.40"/><path d="M97,255L107,259L92,250Z" fill="rgb(45, 39, 48)" fill-opacity="0.42"/><path d="M53,218L62,211L43,212Z" fill="rgb(153, 148, 147)" fill-opacity="0.39"/><path d="M194,222L208,208L226,252Z" fill="rgb(186, 180, 146)" fill-opacity="0.37"/><path d="M157,131L266,120L153,108Z" fill="rgb(247, 247, 247)" fill-opacity="0.46"/><path d="M136,114L144,127L156,123Z" fill="rgb(35, 29, 22)" fill-opacity="0.33"/><path d="M111,121L102,134L115,126Z" fill="rgb(194, 131, 95)" fill-opacity="0.30"/><path d="M38,204L40,205L51,204Z" fill="rgb(197, 193, 184)" fill-opacity="0.45"/><path d="M67,52L64,47L66,49Z" fill="rgb(56, 54, 57)" fill-opacity="0.47"/><path d="M117,69L110,81L132,86Z" fill="rgb(219, 185, 132)" fill-opacity="0.39"/><path d="M99,253L111,249L99,239Z" fill="rgb(20, 17, 22)" fill-opacity="0.55"/><path d="M89,47L97,47L97,62Z" fill="rgb(37, 26, 18)" fill-opacity="0.38"/><path d="M157,192L167,176L127,193Z" fill="rgb(32, 21, 16)" fill-opacity="0.66"/><path d="M17,211L-5,208L-6,173Z" fill="rgb(240, 240, 236)" fill-opacity="0.22"/><path d="M145,224L135,227L136,233Z" fill="rgb(217, 210, 208)" fill-opacity="0.41"/><path d="M54,205L54,196L51,205Z" fill="rgb(68, 68, 64)" fill-opacity="0.42"/><path d="M56,213L61,227L60,213Z" fill="rgb(174, 168, 179)" fill-opacity="0.42"/><path d="M155,221L161,217L166,269Z" fill="rgb(235, 235, 231)" fill-opacity="0.32"/><path d="M58,147L38,174L47,181Z" fill="rgb(59, 46, 44)" fill-opacity="0.42"/><path d="M134,136L137,123L134,127Z" fill="rgb(87, 51, 23)" fill-opacity="0.49"/><path d="M119,246L117,260L142,245Z" fill="rgb(33, 29, 41)" fill-opacity="0.36"/><path d="M28,207L36,215L35,204Z" fill="rgb(189, 188, 179)" fill-opacity="0.35"/><path d="M123,190L131,190L129,204Z" fill="rgb(57, 33, 19)" fill-opacity="0.42"/><path d="M65,239L52,255L47,223Z" fill="rgb(232, 231, 232)" fill-opacity="0.40"/><path d="M85,90L69,76L65,88Z" fill="rgb(214, 164, 117)" fill-opacity="0.32"/><path d="M89,145L111,147L101,153Z" fill="rgb(196, 152, 89)" fill-opacity="0.42"/><path d="M101,234L98,234L98,235Z" fill="rgb(149, 93, 48)" fill-opacity="0.32"/><path d="M145,193L135,201L145,218Z" fill="rgb(7, 4, 6)" fill-opacity="0.59"/><path d="M78,183L88,188L75,210Z" fill="rgb(165, 122, 89)" fill-opacity="0.23"/><path d="M57,66L-5,68L41,43Z" fill="rgb(238, 238, 238)" fill-opacity="0.53"/><path d="M85,101L78,106L84,104Z" fill="rgb(0, 2, 15)" fill-opacity="0.38"/><path d="M168,176L169,169L164,161Z" fill="rgb(133, 136, 140)" fill-opacity="0.40"/><path d="M53,157L79,174L76,190Z" fill="rgb(22, 17, 14)" fill-opacity="0.46"/><path d="M141,61L136,52L123,39Z" fill="rgb(19, 12, 10)" fill-opacity="0.42"/><path d="M99,168L126,197L79,189Z" fill="rgb(195, 155, 112)" fill-opacity="0.22"/><path d="M123,40L172,34L118,7Z" fill="rgb(239, 239, 239)" fill-opacity="0.37"/><path d="M154,196L144,197L185,196Z" fill="rgb(191, 186, 167)" fill-opacity="0.41"/><path d="M88,141L79,138L116,142Z" fill="rgb(96, 40, 43)" fill-opacity="0.30"/><path d="M55,231L67,233L47,216Z" fill="rgb(164, 162, 159)" fill-opacity="0.39"/><path d="M44,182L3,162L-25,208Z" fill="rgb(237, 239, 240)" fill-opacity="0.32"/></svg>