<?xml version="1.0" standalone="no"?><!DOCTYPE svg PUBLIC "-//W3C//DTD SVG 1.1//EN" "http://www.w3.org/Graphics/SVG/1.1/DTD/svg11.dtd"><svg t="1544596493028" class="icon" style="" viewBox="0 0 1024 1024" version="1.1" xmlns="http://www.w3.org/2000/svg" p-id="26540" xmlns:xlink="http://www.w3.org/1999/xlink" width="200" height="200"><defs><style type="text/css"></style></defs><path d="M855.197395 455.447855l-564.738102-0.945456c-0.228561-75.30318-20.700345-192.006041 44.301496-262.842723 39.541998-43.1597 106.172962-87.59209 177.271431-87.59209 105.03318 0 183.562387 78.300647 221.572928 175.216399 11.083681 27.937763 20.831238 42.997593 44.334723 43.813162 58.905212 1.760018 55.31973-59.688561 44.301496-87.625317C767.312304 95.558485 664.267703 16.44227 512.03222 16.44227c-103.468496 0-160.482797 20.993345-221.572928 87.625317-93.493385 101.805138-88.863773 266.394978-88.635212 350.434813l-32.957035 0.945456c-30.805343 0-55.678178 24.350267-55.678178 54.308827l0 459.836823c0 30.120668 24.938282 54.407501 55.678178 54.407501l686.265909 0c30.772116 0 55.678178-24.319054 55.678178-54.407501L910.811132 509.756682C910.876579 479.765902 885.938297 455.447855 855.197395 455.447855L855.197395 455.447855 855.197395 455.447855 855.197395 455.447855zM823.60971 892.204081c0 12.126803-4.302377 22.524802-13.040039 31.033903-8.638988 8.572534-19.102434 12.875918-31.360131 12.875918L246.386357 936.113903c-12.257697 0-22.721143-4.237937-31.326904-12.875918-8.671208-8.573541-13.072259-18.9071-13.072259-31.033903L201.987194 584.994415c0-24.154933 19.885783-43.812155 44.399163-43.812155l532.82419 0c24.482167 0 44.399163 19.657222 44.399163 43.812155L823.60971 892.204081 823.60971 892.204081 823.60971 892.204081 823.60971 892.204081z" p-id="26541" fill="#707070"></path></svg>