<?xml version="1.0" standalone="no"?><!DOCTYPE svg PUBLIC "-//W3C//DTD SVG 1.1//EN" "http://www.w3.org/Graphics/SVG/1.1/DTD/svg11.dtd"><svg t="1521300945828" class="icon" style="" viewBox="0 0 1024 1024" version="1.1" xmlns="http://www.w3.org/2000/svg" p-id="3499" xmlns:xlink="http://www.w3.org/1999/xlink" width="32" height="32"><defs><style type="text/css"></style></defs><path d="M168.59136 670.35136H100.5568c-12.53376 0-24.08448-13.55776-24.08448-31.744V389.65248c0-18.0224 11.75552-31.744 24.08448-31.744h68.03456a20.48 20.48 0 1 0 0-40.96H100.5568c-36.4544 0-65.04448 33.30048-65.04448 72.704v248.95488c0 39.48544 28.34432 72.704 65.04448 72.704h68.03456a20.48 20.48 0 1 0 0-40.96zM454.57408 213.72928l174.4896-89.53856c8.31488-4.25984 10.60864-2.74432 10.60864 8.6016v766.07488c0 10.97728-2.08896 12.288-10.07616 8.02816l-346.68544-184.60672c-15.40096-8.192-29.32736-31.90784-29.32736-50.09408v-321.1264c0-18.30912 13.68064-41.24672 29.04064-49.152l96.17408-49.3568a20.48 20.48 0 0 0-18.67776-36.4544L263.94624 265.50272c-29.24544 14.99136-51.32288 52.14208-51.32288 85.6064v321.1264c0 33.1776 22.1184 70.8608 51.03616 86.2208l346.68544 184.64768c35.88096 19.12832 70.28736-2.99008 70.28736-44.2368V132.79232c0-41.1648-33.95584-63.65184-70.28736-45.01504l-174.4896 89.53856a20.48 20.48 0 1 0 18.71872 36.4544zM742.8096 331.69408c8.27392-1.2288 16.67072-1.8432 25.14944-1.8432 97.28 0 176.5376 82.944 176.5376 185.67168 0 102.72768-79.2576 185.67168-176.5376 185.67168-8.47872 0-16.87552-0.6144-25.14944-1.8432a20.48 20.48 0 1 0-6.06208 40.50944c10.28096 1.51552 20.6848 2.29376 31.21152 2.29376 120.34048 0 217.4976-101.66272 217.4976-226.63168 0-124.928-97.15712-226.63168-217.4976-226.63168-10.52672 0-20.8896 0.77824-31.21152 2.29376a20.48 20.48 0 1 0 6.06208 40.5504z" p-id="3500" fill="#dbdbdb"></path></svg>