<?xml version="1.0" standalone="no"?><!DOCTYPE svg PUBLIC "-//W3C//DTD SVG 1.1//EN" "http://www.w3.org/Graphics/SVG/1.1/DTD/svg11.dtd"><svg t="1544581151498" class="icon" style="" viewBox="0 0 1024 1024" version="1.1" xmlns="http://www.w3.org/2000/svg" p-id="5472" xmlns:xlink="http://www.w3.org/1999/xlink" width="200" height="200"><defs><style type="text/css"></style></defs><path d="M56.888889 113.498413 56.888889 113.498413 56.888889 910.501586C56.888889 941.786163 82.21918 967.111111 113.498413 967.111111L910.501586 967.111111C941.786163 967.111111 967.111111 941.780821 967.111111 910.501586L967.111111 113.498413C967.111111 82.213839 941.780821 56.888889 910.501586 56.888889L113.498413 56.888889C82.213839 56.888889 56.888889 82.21918 56.888889 113.498413L56.888889 113.498413ZM391.320443 679.807858 149.961328 438.448741 69.50829 518.901777 391.320443 840.713933 451.660221 780.374153 932.143644 299.890731 851.690604 219.437693 391.320443 679.807858ZM0 113.498413C0 50.81497 50.780319 0 113.498413 0L910.501586 0C973.18503 0 1024 50.780319 1024 113.498413L1024 910.501586C1024 973.18503 973.219681 1024 910.501586 1024L113.498413 1024C50.81497 1024 0 973.219681 0 910.501586L0 113.498413Z" p-id="5473" fill="#707070"></path></svg>